<svg width="413" height="424" viewBox="0 0 413 424" fill="none" xmlns="http://www.w3.org/2000/svg">
    <path
        d="M0 212.271V424H43.4737H86.9474L88.0342 312.707L89.6645 201.956L139.116 311.621C186.393 415.314 189.654 421.286 203.783 421.286C217.912 421.286 221.172 415.314 268.45 311.621L317.901 201.956L319.532 312.707L320.618 424H366.809H413V212.271V0L363.549 1.62869L313.554 3.25739L258.668 128.666L203.783 254.074L148.897 128.666L94.0118 3.25739L46.7342 1.62869L0 0V212.271Z"
        fill="black" />
    <path
        d="M116.836 11.4008C125.53 39.6313 198.892 199.785 203.783 200.871C208.13 201.956 293.448 16.2868 293.448 4.88605C293.448 2.71448 252.691 0.542908 203.24 0.542908C116.292 0.542908 113.575 1.0858 116.836 11.4008Z"
        fill="#E0007C" />
</svg>